<svg data-v-423bf9ae="" xmlns="http://www.w3.org/2000/svg" viewBox="0 0 499 90" class="iconLeft"><!----><!----><!----><g data-v-423bf9ae="" id="b089ffde-a5e7-415a-96d4-4ceb7f32e786" fill="#000000" transform="matrix(5.870841881720861,0,0,5.870841881720861,119.15851974154782,12.181995307959411)"><path d="M7.73 3.63L8.43 3.49L8.43 1.12C7.57 0.73 6.71 0.55 5.85 0.55C3.09 0.55 0.63 2.45 0.63 5.61C0.63 8.90 2.86 10.63 5.40 10.63C6.79 10.63 7.76 10.22 8.55 9.83L8.55 7.46L7.84 7.32L7.34 9.46C6.90 9.67 6.45 9.84 5.74 9.84C3.79 9.84 2.10 8.78 2.10 5.61C2.10 2.69 3.81 1.32 5.61 1.32C6.17 1.32 6.80 1.37 7.25 1.65ZM14.71 9.93C12.31 9.93 11.28 7.66 11.28 5.35C11.28 3.21 12.53 1.27 14.39 1.27C16.80 1.27 17.82 3.54 17.82 5.85C17.82 7.99 16.58 9.93 14.71 9.93ZM14.55 0.50C11.61 0.50 9.81 2.77 9.81 5.59C9.81 8.27 11.45 10.70 14.56 10.70C17.50 10.70 19.29 8.43 19.29 5.61C19.29 2.93 17.64 0.50 14.55 0.50ZM25.05 10.50L28.20 1.58L29.29 1.19L29.29 0.70L26.25 0.70L26.11 1.33L27.31 1.54L24.81 8.67L22.04 1.50L23.09 1.19L23.09 0.70L19.71 0.70L19.57 1.33L20.65 1.60L24.08 10.50ZM33.56 1.19L33.56 0.70L29.64 0.70L29.50 1.33L30.83 1.60L30.83 9.60L29.50 10.01L29.50 10.50L33.42 10.50L33.56 9.87L32.23 9.60L32.23 1.60ZM43.55 5.63C43.55 2.94 41.92 0.70 38.67 0.70L34.68 0.70L34.54 1.33L35.87 1.60L35.87 9.60L34.54 10.01L34.54 10.50L38.67 10.50C41.80 10.50 43.55 8.32 43.55 5.63ZM38.43 1.47C41.01 1.47 42.08 3.11 42.08 5.63C42.08 8.15 40.74 9.73 38.43 9.73L37.27 9.73L37.27 1.47ZM44.88 7.77L48.30 7.77L48.30 6.72L44.88 6.72ZM53.84 9.60L53.84 0.48L53.37 0.48C52.46 0.94 51.34 1.51 50.12 1.97L50.12 2.46L52.44 1.97L52.44 9.60L50.50 10.01L50.50 10.50L55.52 10.50L55.66 9.87ZM59.05 3.64C59.05 2.25 59.67 1.30 60.86 1.30C62.31 1.30 63.01 2.73 63.01 4.90C62.45 5.45 61.74 5.74 61.07 5.74C59.96 5.74 59.05 5.03 59.05 3.64ZM62.94 5.59C62.94 8.67 60.63 9.87 58.66 10.02L58.91 10.65C61.36 10.70 64.55 8.74 64.55 4.69C64.55 2.02 63.18 0.55 60.84 0.55C58.93 0.55 57.51 2.03 57.51 3.77C57.51 5.68 58.93 6.57 60.47 6.57C61.31 6.57 62.23 6.26 62.94 5.59Z"></path></g><defs data-v-423bf9ae=""><linearGradient data-v-423bf9ae="" gradientTransform="rotate(25)" id="9e4d0460-dee6-4e72-80c7-20a47d59fbb4" x1="0%" y1="0%" x2="100%" y2="0%"><stop data-v-423bf9ae="" offset="0%" style="stop-color: rgb(23, 119, 117); stop-opacity: 1;"></stop><stop data-v-423bf9ae="" offset="100%" style="stop-color: rgb(40, 210, 191); stop-opacity: 1;"></stop></linearGradient></defs><g data-v-423bf9ae="" id="8ff25dcc-17e7-4b05-ba74-e45909191e5c" transform="matrix(1.0714285714285714,0,0,1.0714285714285714,0.5714285714285694,-6.428571428571431)" stroke="none" fill="url(#9e4d0460-dee6-4e72-80c7-20a47d59fbb4)"><path d="M64.004 48a6 6 0 1 1-12 0 6 6 0 0 1 12 0z"></path><path d="M94.004 48h-2c0-8.944-3.496-17.072-9.16-23.14l2.28-2.328a2.005 2.005 0 0 0-.024-2.828 2.005 2.005 0 0 0-2.828.024l-2.312 2.36C74.032 17.056 66.372 14 58.004 14V8c0-1.1-.896-2-2-2s-2 .9-2 2v6.256c-7.136.84-13.584 3.908-18.668 8.468L23.428 10.6a2.002 2.002 0 0 0-2.828-.032 2.006 2.006 0 0 0-.028 2.832l11.944 12.172C27.236 31.564 24 39.4 24 47.996H2a2 2 0 0 0 0 4h22.256c.828 7.023 3.808 13.384 8.256 18.424L20.568 82.592a2.001 2.001 0 0 0 .028 2.828c.388.385.896.576 1.4.576.516 0 1.036-.2 1.428-.596l11.904-12.129c5.084 4.568 11.532 7.629 18.668 8.473V88c0 1.1.896 2 2 2s2-.9 2-2v-6c8.367 0 16.027-3.057 21.96-8.084l2.312 2.352a2 2 0 1 0 2.856-2.799l-2.28-2.327c4.805-5.156 8.032-11.781 8.904-19.141H94c1.104 0 2-.9 2-2A1.998 1.998 0 0 0 94.004 48zm-36 10c-5.512 0-10-4.484-10-10s4.488-10 10-10 10 4.484 10 10-4.488 10-10 10z"></path></g><!----></svg>